Coordinates
version=1
nRows=21
nColumns=11
inDegrees=yes

Units are S.I. units (second, meters, Newtons, ...)
If the header above contains a line with 'inDegrees', this indicates whether rotational values are in degrees (yes) or radians (no).

endheader
time	pelvis_tilt	pelvis_tx	pelvis_ty	hip_flexion_l	hip_flexion_r	knee_angle_l	knee_angle_r	ankle_angle_l	ankle_angle_r	lumbar
     18.40000000	    -26.08685913	      0.09884200	      0.80606642	     76.07529870	     76.07529870	    -57.76743383	    -57.76743383	      7.51972078	      7.51972078	    -35.81780208
     18.41000000	    -25.75747909	      0.10242502	      0.80972281	     75.14414479	     75.14414479	    -57.30869015	    -57.30869015	      7.64141702	      7.64141702	    -35.71856400
     18.42000000	    -25.79366085	      0.10554874	      0.81260158	     74.62632050	     74.62632050	    -56.82365440	    -56.82365440	      7.69527028	      7.69527028	    -35.14855005
     18.43000000	    -25.51066180	      0.10892093	      0.81617389	     73.74188872	     73.74188872	    -56.32080115	    -56.32080115	      7.78011010	      7.78011010	    -34.96134553
     18.44000000	    -25.55521224	      0.11190590	      0.81899100	     73.24338021	     73.24338021	    -55.82655739	    -55.82655739	      7.82211535	      7.82211535	    -34.33735705
     18.45000000	    -25.25054976	      0.11515591	      0.82261578	     72.33202166	     72.33202166	    -55.29442669	    -55.29442669	      7.86011268	      7.86011268	    -34.14817698
     18.46000000	    -25.12042389	      0.11819979	      0.82583406	     71.62724048	     71.62724048	    -54.76754707	    -54.76754707	      7.89555528	      7.89555528	    -33.71857340
     18.47000000	    -25.13649349	      0.12107019	      0.82868493	     71.10212515	     71.10212515	    -54.25674786	    -54.25674786	      7.93166209	      7.93166209	    -33.08191713
     18.48000000	    -25.05569528	      0.12400766	      0.83177637	     70.45784262	     70.45784262	    -53.72375785	    -53.72375785	      7.95681988	      7.95681988	    -32.55946417
     18.49000000	    -24.70659325	      0.12714411	      0.83547540	     69.49657553	     69.49657553	    -53.15476051	    -53.15476051	      7.97176913	      7.97176913	    -32.36785687
     18.50000000	    -24.73948901	      0.12993867	      0.83826090	     68.99328653	     68.99328653	    -52.62919892	    -52.62919892	      8.01187678	      8.01187678	    -31.66576019
     18.51000000	    -24.66136267	      0.13280012	      0.84126302	     68.36136148	     68.36136148	    -52.08872717	    -52.08872717	      8.03495061	      8.03495061	    -31.08924979
     18.52000000	    -24.19517565	      0.13601662	      0.84522064	     67.25584177	     67.25584177	    -51.48781197	    -51.48781197	      8.01897873	      8.01897873	    -31.01650277
     18.53000000	    -24.23689064	      0.13875363	      0.84795075	     66.76235315	     66.76235315	    -50.94385203	    -50.94385203	      8.05511255	      8.05511255	    -30.26504754
     18.54000000	    -23.95460759	      0.14177464	      0.85144286	     65.87700584	     65.87700584	    -50.34381004	    -50.34381004	      8.01473977	      8.01473977	    -29.92110250
     18.55000000	    -23.93979394	      0.14457095	      0.85430712	     65.30644983	     65.30644983	    -49.77260926	    -49.77260926	      8.03361895	      8.03361895	    -29.22091996
     18.56000000	    -23.59303334	      0.14762044	      0.85794084	     64.34009648	     64.34009648	    -49.14465176	    -49.14465176	      7.95501240	      7.95501240	    -28.93957363
     18.57000000	    -23.38518414	      0.15056989	      0.86125300	     63.53324609	     63.53324609	    -48.52670023	    -48.52670023	      7.90962310	      7.90962310	    -28.46799745
     18.58000000	    -23.33975483	      0.15336091	      0.86416894	     62.92345023	     62.92345023	    -47.92957008	    -47.92957008	      7.91249476	      7.91249476	    -27.77333517
     18.59000000	    -23.18367938	      0.15623728	      0.86735867	     62.16575252	     62.16575252	    -47.28447201	    -47.28447201	      7.87278690	      7.87278690	    -27.21913577
     18.60000000	    -22.94124464	      0.15916967	      0.87071666	     61.31179309	     61.31179309	    -46.63261125	    -46.63261125	      7.79709964	      7.79709964	    -26.76904453
